<svg width="60" height="60" viewBox="0 0 60 60" fill="none" xmlns="http://www.w3.org/2000/svg">
<rect width="60" height="60" rx="30" fill="#BDBDBD"/>
<rect x="7" y="4" width="46" height="46" fill="#FF0000" fill-opacity="0.01"/>
<path fill-rule="evenodd" clip-rule="evenodd" d="M38.7444 19.5538C38.7444 24.9646 34.8113 29.3541 29.9605 29.3541C25.1103 29.3541 21.1806 24.9646 21.1806 19.5538C21.1806 14.1435 25.1103 10.1333 29.9605 10.1333C34.8114 10.1333 38.7444 14.1435 38.7444 19.5538ZM45.6726 38.6219L46.4455 40.3079C46.7652 41.0047 47.0928 42.256 46.6552 42.8848C45.874 44.0093 44.1201 43.8601 44.1201 43.8601L16.0838 43.86C16.0838 43.86 14.1919 43.9847 13.3585 42.836C12.9082 42.2155 13.2219 40.958 13.5298 40.2563L14.2839 38.537C14.2839 38.537 16.3694 33.8708 18.7435 31.1668C20.2018 29.5087 21.9363 29.8863 23.0581 30.4255C23.538 30.656 24.0615 31.1926 24.5278 31.6707C24.7329 31.8809 24.9269 32.0799 25.1013 32.2364C25.8881 32.9422 27.2772 33.7445 29.5478 33.7898H30.9409C33.2102 33.7445 34.5992 32.9422 35.3853 32.2364C35.5737 32.0672 35.7828 31.8451 36.003 31.6111C36.4494 31.1369 36.9415 30.6141 37.4 30.3847C38.4297 29.869 39.9968 29.5517 41.417 31.1669C43.7918 33.8711 45.6726 38.6219 45.6726 38.6219Z" fill="#9B9B9B"/>
<mask id="mask0" style="mask-type:alpha" maskUnits="userSpaceOnUse" x="13" y="10" width="34" height="34">
<path fill-rule="evenodd" clip-rule="evenodd" d="M38.7444 19.5538C38.7444 24.9646 34.8113 29.3541 29.9605 29.3541C25.1103 29.3541 21.1806 24.9646 21.1806 19.5538C21.1806 14.1435 25.1103 10.1333 29.9605 10.1333C34.8114 10.1333 38.7444 14.1435 38.7444 19.5538ZM45.6726 38.6219L46.4455 40.3079C46.7652 41.0047 47.0928 42.256 46.6552 42.8848C45.874 44.0093 44.1201 43.8601 44.1201 43.8601L16.0838 43.86C16.0838 43.86 14.1919 43.9847 13.3585 42.836C12.9082 42.2155 13.2219 40.958 13.5298 40.2563L14.2839 38.537C14.2839 38.537 16.3694 33.8708 18.7435 31.1668C20.2018 29.5087 21.9363 29.8863 23.0581 30.4255C23.538 30.656 24.0615 31.1926 24.5278 31.6707C24.7329 31.8809 24.9269 32.0799 25.1013 32.2364C25.8881 32.9422 27.2772 33.7445 29.5478 33.7898H30.9409C33.2102 33.7445 34.5992 32.9422 35.3853 32.2364C35.5737 32.0672 35.7828 31.8451 36.003 31.6111C36.4494 31.1369 36.9415 30.6141 37.4 30.3847C38.4297 29.869 39.9968 29.5517 41.417 31.1669C43.7918 33.8711 45.6726 38.6219 45.6726 38.6219Z" fill="white"/>
</mask>
<g mask="url(#mask0)">
<rect x="7" y="4" width="46" height="46" fill="white"/>
</g>
</svg>
