<svg width="39" height="34" viewBox="0 0 39 34" fill="none" xmlns="http://www.w3.org/2000/svg">
<rect width="39" height="34" rx="7" fill="#FF9500"/>
<rect x="5" y="2" width="30" height="30" fill="#FF0000" fill-opacity="0.01"/>
<path fill-rule="evenodd" clip-rule="evenodd" d="M29.6066 12.4167H32.3902C32.8061 12.4167 33.0998 12.8346 32.9683 13.2393L32.562 14.4893C32.4791 14.7445 32.2462 14.9167 31.9839 14.9167H30.5207L30.5233 14.924C31.5161 15.4944 32.1875 16.5832 32.1875 17.8333V20.3333C32.1875 21.1783 31.8803 21.9494 31.375 22.5369V25.75C31.375 26.4404 30.8294 27 30.1562 27H27.7187C27.0456 27 26.5 26.4404 26.5 25.75V23.6667H13.5V25.75C13.5 26.4404 12.9544 27 12.2812 27H9.84375C9.17064 27 8.625 26.4404 8.625 25.75V22.5369C8.11968 21.9494 7.8125 21.1784 7.8125 20.3333V17.8333C7.8125 16.5832 8.48393 15.4944 9.4767 14.924L9.47934 14.9167H8.01608C7.7538 14.9167 7.52094 14.7445 7.43799 14.4893L7.03174 13.2393C6.90021 12.8346 7.19388 12.4167 7.60983 12.4167H10.3934L10.7922 11.3258C11.259 10.0491 12.0833 8.9638 13.176 8.18714C14.2687 7.41052 15.5489 7 16.8784 7H23.1216C24.451 7 25.7313 7.41047 26.824 8.18714C27.9166 8.9638 28.741 10.0491 29.2078 11.3258L29.6066 12.4167ZM16.8784 10.3333C15.5312 10.3333 14.3083 11.2026 13.8353 12.4963L13.1027 14.5H26.8973L26.1647 12.4963C25.6917 11.2026 24.4687 10.3333 23.1216 10.3333H16.8784ZM11.4687 20.75C10.5713 20.75 9.84375 20.0038 9.84375 19.0833C9.84375 18.1629 10.5713 17.4167 11.4687 17.4167C12.3662 17.4167 13.9062 18.9962 13.9062 19.9167C13.9062 20.7667 12.5929 20.7574 11.6851 20.751C11.6099 20.7505 11.5374 20.75 11.4687 20.75ZM28.3149 20.751C28.3901 20.7505 28.4626 20.75 28.5312 20.75C29.4287 20.75 30.1562 20.0038 30.1562 19.0833C30.1562 18.1629 29.4287 17.4167 28.5312 17.4167C27.6338 17.4167 26.0937 18.9962 26.0937 19.9167C26.0937 20.7667 27.4071 20.7574 28.3149 20.751Z" fill="black"/>
<mask id="mask0" style="mask-type:alpha" maskUnits="userSpaceOnUse" x="7" y="7" width="26" height="20">
<path fill-rule="evenodd" clip-rule="evenodd" d="M29.6066 12.4167H32.3902C32.8061 12.4167 33.0998 12.8346 32.9683 13.2393L32.562 14.4893C32.4791 14.7445 32.2462 14.9167 31.9839 14.9167H30.5207L30.5233 14.924C31.5161 15.4944 32.1875 16.5832 32.1875 17.8333V20.3333C32.1875 21.1783 31.8803 21.9494 31.375 22.5369V25.75C31.375 26.4404 30.8294 27 30.1562 27H27.7187C27.0456 27 26.5 26.4404 26.5 25.75V23.6667H13.5V25.75C13.5 26.4404 12.9544 27 12.2812 27H9.84375C9.17064 27 8.625 26.4404 8.625 25.75V22.5369C8.11968 21.9494 7.8125 21.1784 7.8125 20.3333V17.8333C7.8125 16.5832 8.48393 15.4944 9.4767 14.924L9.47934 14.9167H8.01608C7.7538 14.9167 7.52094 14.7445 7.43799 14.4893L7.03174 13.2393C6.90021 12.8346 7.19388 12.4167 7.60983 12.4167H10.3934L10.7922 11.3258C11.259 10.0491 12.0833 8.9638 13.176 8.18714C14.2687 7.41052 15.5489 7 16.8784 7H23.1216C24.451 7 25.7313 7.41047 26.824 8.18714C27.9166 8.9638 28.741 10.0491 29.2078 11.3258L29.6066 12.4167ZM16.8784 10.3333C15.5312 10.3333 14.3083 11.2026 13.8353 12.4963L13.1027 14.5H26.8973L26.1647 12.4963C25.6917 11.2026 24.4687 10.3333 23.1216 10.3333H16.8784ZM11.4687 20.75C10.5713 20.75 9.84375 20.0038 9.84375 19.0833C9.84375 18.1629 10.5713 17.4167 11.4687 17.4167C12.3662 17.4167 13.9062 18.9962 13.9062 19.9167C13.9062 20.7667 12.5929 20.7574 11.6851 20.751C11.6099 20.7505 11.5374 20.75 11.4687 20.75ZM28.3149 20.751C28.3901 20.7505 28.4626 20.75 28.5312 20.75C29.4287 20.75 30.1562 20.0038 30.1562 19.0833C30.1562 18.1629 29.4287 17.4167 28.5312 17.4167C27.6338 17.4167 26.0937 18.9962 26.0937 19.9167C26.0937 20.7667 27.4071 20.7574 28.3149 20.751Z" fill="white"/>
</mask>
<g mask="url(#mask0)">
<rect x="5" y="2" width="30" height="30" fill="white"/>
</g>
</svg>
