<svg width="39" height="34" viewBox="0 0 39 34" fill="none" xmlns="http://www.w3.org/2000/svg">
<rect width="39" height="34" rx="7" fill="#4CD964"/>
<rect x="5" y="2" width="30" height="30" fill="#FF0000" fill-opacity="0.01"/>
<path fill-rule="evenodd" clip-rule="evenodd" d="M9 7H31C32.105 7 33 7.895 33 9V25C33 26.105 32.105 27 31 27H29V26.5C29 25.672 28.328 25 27.5 25C26.672 25 26 25.672 26 26.5V27H14V26.5C14 25.672 13.328 25 12.5 25C11.672 25 11 25.672 11 26.5V27H9C7.895 27 7 26.105 7 25V9C7 7.89543 7.89543 7 9 7ZM12.6936 19.1427C12.0527 19.4304 11.3159 19.7611 11 21H19.001C18.6851 19.7611 17.9483 19.4304 17.3074 19.1427C16.8325 18.9296 16.4102 18.74 16.251 18.222V17.319C16.439 17.219 16.975 16.527 17.031 15.987C17.178 15.975 17.41 15.828 17.478 15.249C17.514 14.938 17.368 14.763 17.28 14.708C17.28 14.708 17.5 14.255 17.5 13.708C17.5 12.612 17.103 11.677 16.25 11.677C16.25 11.677 15.954 11 15 11C13.233 11 12.5 12.228 12.501 13.708C12.501 14.207 12.721 14.708 12.721 14.708C12.632 14.763 12.486 14.938 12.523 15.249C12.591 15.828 12.823 15.975 12.97 15.987C13.026 16.527 13.562 17.219 13.75 17.319V18.222C13.5908 18.74 13.1685 18.9296 12.6936 19.1427ZM28 20H22C21.448 20 21 19.552 21 19C21 18.448 21.448 18 22 18H28C28.552 18 29 18.448 29 19C29 19.552 28.552 20 28 20ZM22 16H28C28.552 16 29 15.552 29 15C29 14.448 28.552 14 28 14H22C21.448 14 21 14.448 21 15C21 15.552 21.448 16 22 16Z" fill="black"/>
<mask id="mask0" style="mask-type:alpha" maskUnits="userSpaceOnUse" x="7" y="7" width="26" height="20">
<path fill-rule="evenodd" clip-rule="evenodd" d="M9 7H31C32.105 7 33 7.895 33 9V25C33 26.105 32.105 27 31 27H29V26.5C29 25.672 28.328 25 27.5 25C26.672 25 26 25.672 26 26.5V27H14V26.5C14 25.672 13.328 25 12.5 25C11.672 25 11 25.672 11 26.5V27H9C7.895 27 7 26.105 7 25V9C7 7.89543 7.89543 7 9 7ZM12.6936 19.1427C12.0527 19.4304 11.3159 19.7611 11 21H19.001C18.6851 19.7611 17.9483 19.4304 17.3074 19.1427C16.8325 18.9296 16.4102 18.74 16.251 18.222V17.319C16.439 17.219 16.975 16.527 17.031 15.987C17.178 15.975 17.41 15.828 17.478 15.249C17.514 14.938 17.368 14.763 17.28 14.708C17.28 14.708 17.5 14.255 17.5 13.708C17.5 12.612 17.103 11.677 16.25 11.677C16.25 11.677 15.954 11 15 11C13.233 11 12.5 12.228 12.501 13.708C12.501 14.207 12.721 14.708 12.721 14.708C12.632 14.763 12.486 14.938 12.523 15.249C12.591 15.828 12.823 15.975 12.97 15.987C13.026 16.527 13.562 17.219 13.75 17.319V18.222C13.5908 18.74 13.1685 18.9296 12.6936 19.1427ZM28 20H22C21.448 20 21 19.552 21 19C21 18.448 21.448 18 22 18H28C28.552 18 29 18.448 29 19C29 19.552 28.552 20 28 20ZM22 16H28C28.552 16 29 15.552 29 15C29 14.448 28.552 14 28 14H22C21.448 14 21 14.448 21 15C21 15.552 21.448 16 22 16Z" fill="white"/>
</mask>
<g mask="url(#mask0)">
<rect x="5" y="2" width="30" height="30" fill="white"/>
</g>
</svg>
