<svg width="39" height="34" viewBox="0 0 39 34" fill="none" xmlns="http://www.w3.org/2000/svg">
<rect width="39" height="34" rx="7" fill="#FFCC00"/>
<rect x="5" y="2" width="30" height="30" fill="#FF0000" fill-opacity="0.01"/>
<path d="M31.4804 15.4878C31.9518 15.0086 32.118 14.3059 31.9148 13.6529C31.7116 13 31.1814 12.5336 30.531 12.4352L24.8412 11.5728C24.73 11.5561 24.6329 11.4833 24.5831 11.3773L22.0391 5.99792C21.7464 5.38205 21.1574 5 20.4994 5C19.8413 5 19.2523 5.38205 18.9622 5.99792L16.4169 11.3773C16.3671 11.4833 16.27 11.5561 16.1588 11.5728L10.469 12.4365C9.81864 12.5349 9.28837 13.0013 9.08521 13.6542C8.88205 14.3071 9.04816 15.0099 9.51965 15.4891L13.6366 19.6762C13.7171 19.758 13.7541 19.8769 13.7349 19.9931L12.7626 25.9066C12.6514 26.5825 12.9134 27.2533 13.4449 27.6571C13.9764 28.0609 14.669 28.1132 15.2504 27.7938L20.3396 25.0019C20.4393 24.947 20.5594 24.947 20.6591 25.0019L25.7484 27.7938C26.0014 27.9305 26.2748 27.9995 26.5482 27.9995C26.9022 27.9995 27.2536 27.8832 27.5551 27.6558C28.0866 27.252 28.3486 26.5812 28.2374 25.9053L27.2651 19.9919C27.2459 19.8756 27.2829 19.7567 27.3634 19.675L31.4804 15.4878Z" fill="black"/>
<mask id="mask0" style="mask-type:alpha" maskUnits="userSpaceOnUse" x="9" y="5" width="23" height="24">
<path d="M31.4804 15.4878C31.9518 15.0086 32.118 14.3059 31.9148 13.6529C31.7116 13 31.1814 12.5336 30.531 12.4352L24.8412 11.5728C24.73 11.5561 24.6329 11.4833 24.5831 11.3773L22.0391 5.99792C21.7464 5.38205 21.1574 5 20.4994 5C19.8413 5 19.2523 5.38205 18.9622 5.99792L16.4169 11.3773C16.3671 11.4833 16.27 11.5561 16.1588 11.5728L10.469 12.4365C9.81864 12.5349 9.28837 13.0013 9.08521 13.6542C8.88205 14.3071 9.04816 15.0099 9.51965 15.4891L13.6366 19.6762C13.7171 19.758 13.7541 19.8769 13.7349 19.9931L12.7626 25.9066C12.6514 26.5825 12.9134 27.2533 13.4449 27.6571C13.9764 28.0609 14.669 28.1132 15.2504 27.7938L20.3396 25.0019C20.4393 24.947 20.5594 24.947 20.6591 25.0019L25.7484 27.7938C26.0014 27.9305 26.2748 27.9995 26.5482 27.9995C26.9022 27.9995 27.2536 27.8832 27.5551 27.6558C28.0866 27.252 28.3486 26.5812 28.2374 25.9053L27.2651 19.9919C27.2459 19.8756 27.2829 19.7567 27.3634 19.675L31.4804 15.4878Z" fill="white"/>
</mask>
<g mask="url(#mask0)">
<rect x="5" y="2" width="30" height="30" fill="white"/>
</g>
</svg>
