<svg width="39" height="34" viewBox="0 0 39 34" fill="none" xmlns="http://www.w3.org/2000/svg">
<rect width="39" height="34" rx="7" fill="#007AFF"/>
<rect x="5" y="2" width="30" height="30" fill="#FF0000" fill-opacity="0.01"/>
<path fill-rule="evenodd" clip-rule="evenodd" d="M25.7029 12.1438C25.7029 15.6726 23.1378 18.5353 19.9743 18.5353C16.8111 18.5353 14.2483 15.6726 14.2483 12.1438C14.2483 8.61538 16.8111 6 19.9743 6C23.1379 6 25.7029 8.61538 25.7029 12.1438ZM30.2213 24.5795L30.7253 25.6791C30.9339 26.1335 31.1475 26.9496 30.8621 27.3597C30.3526 28.093 29.2088 27.9957 29.2088 27.9957L10.9243 27.9956C10.9243 27.9956 9.69041 28.077 9.14686 27.3279C8.85321 26.9232 9.05777 26.1031 9.25858 25.6454L9.75039 24.5242C9.75039 24.5242 11.1105 21.481 12.6588 19.7175C13.6099 18.6361 14.7411 18.8824 15.4727 19.2341C15.7857 19.3843 16.1271 19.7343 16.4312 20.0461C16.5649 20.1832 16.6915 20.313 16.8052 20.4151C17.3183 20.8754 18.2242 21.3986 19.7051 21.4281H20.6137C22.0937 21.3986 22.9995 20.8754 23.5122 20.4151C23.6351 20.3047 23.7714 20.1598 23.915 20.0073C24.2062 19.698 24.5271 19.3571 24.8261 19.2074C25.4976 18.8711 26.5197 18.6642 27.4459 19.7176C28.9947 21.4812 30.2213 24.5795 30.2213 24.5795Z" fill="#9B9B9B"/>
<mask id="mask0" style="mask-type:alpha" maskUnits="userSpaceOnUse" x="9" y="6" width="22" height="22">
<path fill-rule="evenodd" clip-rule="evenodd" d="M25.7029 12.1438C25.7029 15.6726 23.1378 18.5353 19.9743 18.5353C16.8111 18.5353 14.2483 15.6726 14.2483 12.1438C14.2483 8.61538 16.8111 6 19.9743 6C23.1379 6 25.7029 8.61538 25.7029 12.1438ZM30.2213 24.5795L30.7253 25.6791C30.9339 26.1335 31.1475 26.9496 30.8621 27.3597C30.3526 28.093 29.2088 27.9957 29.2088 27.9957L10.9243 27.9956C10.9243 27.9956 9.69041 28.077 9.14686 27.3279C8.85321 26.9232 9.05777 26.1031 9.25858 25.6454L9.75039 24.5242C9.75039 24.5242 11.1105 21.481 12.6588 19.7175C13.6099 18.6361 14.7411 18.8824 15.4727 19.2341C15.7857 19.3843 16.1271 19.7343 16.4312 20.0461C16.5649 20.1832 16.6915 20.313 16.8052 20.4151C17.3183 20.8754 18.2242 21.3986 19.7051 21.4281H20.6137C22.0937 21.3986 22.9995 20.8754 23.5122 20.4151C23.6351 20.3047 23.7714 20.1598 23.915 20.0073C24.2062 19.698 24.5271 19.3571 24.8261 19.2074C25.4976 18.8711 26.5197 18.6642 27.4459 19.7176C28.9947 21.4812 30.2213 24.5795 30.2213 24.5795Z" fill="white"/>
</mask>
<g mask="url(#mask0)">
<rect x="5" y="2" width="30" height="30" fill="white"/>
</g>
</svg>
